{"title":"The Nut Job 2014 HDCAM x264 AC3 TiTAN","uid":9514557,"size":1117879943,"categoryP":"video","categoryS":"movies","magnet":"?xt=urn:btih:50fd37c1cc86957d89d8f50ccb350691d5d16691&amp;dn=The+Nut+Job+2014+HDCAM+x264+AC3+TiTAN&amp;tr=udp%3A%2F%2Ftracker.openbittorrent.com%3A80&amp;tr=udp%3A%2F%2Fopen.demonii.com%3A1337&amp;tr=udp%3A%2F%2Ftracker.coppersurfer.tk%3A6969&amp;tr=udp%3A%2F%2Fexodus.desync.com%3A6969","seeders":21,"leechers":0,"uploader":"xxxlavalxxx","files":3,"time":1390492719,"description":" &lt;a href=&quot;\nhttp://www.imdb.com/title/tt1821658/&quot; rel=&quot;nofollow&quot; target=&quot;_NEW&quot;&gt;\nhttp://www.imdb.com/title/tt1821658/&lt;/a&gt;\n\n\nAn incorrigibly self-serving exiled squirrel finds himself helping his former park brethren raid a nut store to survive, that is also the front for a human gang's bank robbery.\n\nDirector: Peter Lepeniotis\nWriters: Lorne Cameron (screenplay), Peter Lepeniotis\nStars: Will Arnett, Brendan Fraser, Liam Neeson \nGenres: Animation | Adventure | Comedy | Family\nCountry: Canada | South Korea | USA\nLanguage: English\n\n\nSource 720p HDCAM THX \n\nNote Has a site watermark.. Other than that pretty good cam..  Enjoy\n\nGeneral\n\nFormat                                   : Matroska\nFormat version                           : Version 2\nFile size                                : 1.04 GiB\nDuration                                 : 1h 17mn\nOverall bit rate mode                    : Variable\nOverall bit rate                         : 1 912 Kbps\nEncoded date                             : UTC 2014-01-24 02:41:04\nWriting application                      : mkvmerge v6.7.0 ('Back to the Ground') 32bit built on Jan  8 2014 15:03:17\nWriting library                          : libebml v1.3.0 + libmatroska v1.4.1\n\nVideo\nID                                       : 1\nFormat                                   : AVC\nFormat/Info                              : Advanced Video Codec\nFormat profile                           : &lt;a class=&quot;__cf_email__&quot; href=&quot;/cdn-cgi/l/email-protection&quot; data-cfemail=&quot;773f1e101f373b435946&quot;&gt;[email&amp;#160;protected]&lt;/a&gt;&lt;script cf-hash='f9e31' type=&quot;text/javascript&quot;&gt;\n/* &lt;![CDATA[ */!function(){try{var t=&quot;currentScript&quot;in document?document.currentScript:function(){for(var t=document.getElementsByTagName(&quot;script&quot;),e=t.length;e--;)if(t[e].getAttribute(&quot;cf-hash&quot;))return t[e]}();if(t&amp;&amp;t.previousSibling){var e,r,n,i,c=t.previousSibling,a=c.getAttribute(&quot;data-cfemail&quot;);if(a){for(e=&quot;&quot;,r=parseInt(a.substr(0,2),16),n=2;a.length-n;n+=2)i=parseInt(a.substr(n,2),16)^r,e+=String.fromCharCode(i);e=document.createTextNode(e),c.parentNode.replaceChild(e,c)}}}catch(u){}}();/* ]]&gt; */&lt;/script&gt;\nFormat settings, CABAC                   : Yes\nFormat settings, ReFrames                : 3 frames\nCodec ID                                 : V_MPEG4/ISO/AVC\nDuration                                 : 1h 17mn\nBit rate mode                            : Variable\nBit rate                                 : 1 714 Kbps\nMaximum bit rate                         : 40.0 Mbps\nWidth                                    : 720 pixels\nHeight                                   : 400 pixels\nDisplay aspect ratio                     : 16:9\nFrame rate mode                          : Constant\nFrame rate                               : 29.970 fps\nColor space                              : YUV\nChroma subsampling                       : 4:2:0\nBit depth                                : 8 bits\nScan type                                : Progressive\nBits/(Pixel*Frame)                       : 0.199\nStream size                              : 956 MiB (90%)\nWriting library                          : x264 core 140 r2377 1ca7bb9\nDefault                                  : Yes\nForced                                   : No\nColor primaries                          : BT.709\nTransfer characteristics                 : BT.709\nMatrix coefficients                      : BT.709\n\nAudio\nID                                       : 2\nFormat                                   : AC-3\nFormat/Info                              : Audio Coding 3\nMode extension                           : CM (complete main)\nFormat settings, Endianness              : Big\nCodec ID                                 : A_AC3\nDuration                                 : 1h 17mn\nBit rate mode                            : Constant\nBit rate                                 : 160 Kbps\nChannel(s)                               : 2 channels\nChannel positions                        : Front: L R\nSampling rate                            : 48.0 KHz\nBit depth                                : 16 bits\nCompression mode                         : Lossy\nStream size                              : 89.2 MiB (8%)\nDefault                                  : Yes\nForced                                   : No\n\n\n\n\nscreens\n &lt;a href=&quot;\nhttp://i.imgur.com/KcgNHyz.jpg&quot; rel=&quot;nofollow&quot; target=&quot;_NEW&quot;&gt;\nhttp://i.imgur.com/KcgNHyz.jpg&lt;/a&gt; &lt;a href=&quot;\nhttp://i.imgur.com/5io48n3.jpg&quot; rel=&quot;nofollow&quot; target=&quot;_NEW&quot;&gt;\nhttp://i.imgur.com/5io48n3.jpg&lt;/a&gt; &lt;a href=&quot;\nhttp://i.imgur.com/pTvsEdd.jpg&quot; rel=&quot;nofollow&quot; target=&quot;_NEW&quot;&gt;\nhttp://i.imgur.com/pTvsEdd.jpg&lt;/a&gt; &lt;a href=&quot;\nhttp://i.imgur.com/M6nx4am.jpg&quot; rel=&quot;nofollow&quot; target=&quot;_NEW&quot;&gt;\nhttp://i.imgur.com/M6nx4am.jpg&lt;/a&gt; &lt;a href=&quot;\nhttp://i.imgur.com/XgF8me6.jpg&quot; rel=&quot;nofollow&quot; target=&quot;_NEW&quot;&gt;\nhttp://i.imgur.com/XgF8me6.jpg&lt;/a&gt; &lt;a href=&quot;\nhttp://i.imgur.com/OGhgTD8.jpg&quot; rel=&quot;nofollow&quot; target=&quot;_NEW&quot;&gt;\nhttp://i.imgur.com/OGhgTD8.jpg&lt;/a&gt;","torrent":{"xt":"urn:btih:50fd37c1cc86957d89d8f50ccb350691d5d16691","amp;dn":"The+Nut+Job+2014+HDCAM+x264+AC3+TiTAN","amp;tr":["udp%3A%2F%2Ftracker.openbittorrent.com%3A80","udp%3A%2F%2Fopen.demonii.com%3A1337","udp%3A%2F%2Ftracker.coppersurfer.tk%3A6969","udp%3A%2F%2Fexodus.desync.com%3A6969"],"infoHash":"50fd37c1cc86957d89d8f50ccb350691d5d16691","infoHashBuffer":{"type":"Buffer","data":[80,253,55,193,204,134,149,125,137,216,245,12,203,53,6,145,213,209,102,145]},"announce":[],"urlList":[]}}